<svg version="1.0" xmlns="http://www.w3.org/2000/svg"
     width="100%" height="100%" viewBox="0 0 60 64" preserveAspectRatio="xMidYMid meet"
     color-interpolation-filters="sRGB" style="margin: auto;">
    <rect x="0" y="0" width="100%" height="100%" fill="transparent" fill-opacity="1"/>
    <g fill="#ff2656">
        <rect fill="#ff2656" fill-opacity="0" stroke-width="2" x="0" y="0" width="60" height="64"
        />
        <svg filter="url(#colors3045052269)" x="0" y="0" width="60" height="64" style="overflow: visible;">
            <svg xmlns="http://www.w3.org/2000/svg" preserveAspectRatio="xMidYMid"
                 viewBox="0 0 58.832157135009766 63" version="1.1" x="0px" y="0px">
                <path
                    d="M 31.5 0 C 14.131 0 3.7392476e-017 14.131 0 31.5 C 0 48.869 14.131 63 31.5 63 C 42.105 63 51.92325 57.70775 57.78125 48.84375 C 58.23725 48.15475 58.03275 47.208 57.34375 46.75 L 34.53125 31.5625 L 58.09375 17.53125 C 58.80375 17.10825 59.046 16.17975 58.625 15.46875 C 52.975 5.91475 42.581 -4.1182335e-017 31.5 0 z M 31.5 3 C 41.027 3 49.96375 7.85 55.21875 15.75 L 30.9375 30.1875 C 30.4955 30.4505 30.23275 30.9225 30.21875 31.4375 C 30.20575 31.9525 30.446 32.43375 30.875 32.71875 L 54.40625 48.40625 C 49.03425 55.68725 40.596 60 31.5 60 C 15.785 60 3 47.215 3 31.5 C 3 15.785 15.785 3 31.5 3 z M 28.59375 10.34375 C 25.13275 10.34375 22.3125 13.164 22.3125 16.625 C 22.3125 20.085 25.13275 22.90625 28.59375 22.90625 C 32.05375 22.90625 34.875 20.085 34.875 16.625 C 34.875 13.164 32.05375 10.34375 28.59375 10.34375 z M 28.59375 13.34375 C 30.39975 13.34375 31.875 14.818 31.875 16.625 C 31.875 18.431 30.39975 19.90625 28.59375 19.90625 C 26.78675 19.90625 25.3125 18.431 25.3125 16.625 C 25.3125 14.818 26.78675 13.34375 28.59375 13.34375 z "
                    fill-rule="evenodd"/>
            </svg>
        </svg>
    </g>
</svg>
