<svg data-v-0dd9719b="" version="1.0" xmlns="http://www.w3.org/2000/svg"
     width="100%" height="100%" viewBox="0 0 245 64" preserveAspectRatio="xMidYMid meet"
     color-interpolation-filters="sRGB" style="margin: auto;">
    <rect x="0" y="0" width="100%" height="100%" fill="transparent" fill-opacity="1"
          class="background"/>
    <g fill="#41b883" class="icon-text-wrapper icon-svg-group iconsvg">
        <g>
            <rect fill="#41b883" fill-opacity="0" stroke-width="2" x="0" y="0" width="60" height="64"
                  class="image-rect"/>
            <svg filter="url(#colors3045052269)" x="0" y="0" width="60" height="64.2508352608584"
                 class="image-svg-svg primary" style="overflow: visible;">
                <svg xmlns="http://www.w3.org/2000/svg" preserveAspectRatio="xMidYMid"
                     viewBox="0 0 58.832157135009766 63" version="1.1" x="0px" y="0px">
                    <path
                        d="M 31.5 0 C 14.131 0 3.7392476e-017 14.131 0 31.5 C 0 48.869 14.131 63 31.5 63 C 42.105 63 51.92325 57.70775 57.78125 48.84375 C 58.23725 48.15475 58.03275 47.208 57.34375 46.75 L 34.53125 31.5625 L 58.09375 17.53125 C 58.80375 17.10825 59.046 16.17975 58.625 15.46875 C 52.975 5.91475 42.581 -4.1182335e-017 31.5 0 z M 31.5 3 C 41.027 3 49.96375 7.85 55.21875 15.75 L 30.9375 30.1875 C 30.4955 30.4505 30.23275 30.9225 30.21875 31.4375 C 30.20575 31.9525 30.446 32.43375 30.875 32.71875 L 54.40625 48.40625 C 49.03425 55.68725 40.596 60 31.5 60 C 15.785 60 3 47.215 3 31.5 C 3 15.785 15.785 3 31.5 3 z M 28.59375 10.34375 C 25.13275 10.34375 22.3125 13.164 22.3125 16.625 C 22.3125 20.085 25.13275 22.90625 28.59375 22.90625 C 32.05375 22.90625 34.875 20.085 34.875 16.625 C 34.875 13.164 32.05375 10.34375 28.59375 10.34375 z M 28.59375 13.34375 C 30.39975 13.34375 31.875 14.818 31.875 16.625 C 31.875 18.431 30.39975 19.90625 28.59375 19.90625 C 26.78675 19.90625 25.3125 18.431 25.3125 16.625 C 25.3125 14.818 26.78675 13.34375 28.59375 13.34375 z "
                        fill-rule="evenodd"/>
                </svg>
            </svg>
            <defs>
                <filter id="colors3045052269">
                    <feColorMatrix type="matrix"
                                   values="0 0 0 0 0.25390625  0 0 0 0 0.71875  0 0 0 0 0.51171875  0 0 0 1 0"
                    />
                </filter>
                <filter id="colorsf5168355449">
                    <feColorMatrix type="matrix"
                                   values="0 0 0 0 0.99609375  0 0 0 0 0.99609375  0 0 0 0 0.99609375  0 0 0 1 0"/>
                </filter>
                <filter id="colorsb12609706">
                    <feColorMatrix type="matrix" values="0 0 0 0 0  0 0 0 0 0  0 0 0 0 0  0 0 0 1 0"/>
                </filter>
            </defs>
        </g>
        <g transform="translate(67,10.425220489501953)">
            <g class="tp-name iconsvg-namesvg" transform="translate(0,0)">
                <g transform="scale(1)">
                    <g>
                        <path
                            d="M0.18-0.02L10.72-0.02C18.72-0.02 25.29-6.59 25.29-14.63 25.29-22.67 18.72-29.24 10.72-29.24L0.18-29.24C0-28.75 1.79-28.57 1.79-26.56L1.79-2.7C1.79-0.69 0-0.51 0.18-0.02ZM5.76-27.41L8.44-27.41C24.8-27.41 24.71-1.85 8.44-1.85L5.76-1.85ZM28.82-0.02L48.21-0.02 48.65-5.56C48.29-5.83 47.89-3.64 47.54-3.1 47.4-2.93 46.82-1.99 45.21-1.85L34.45-1.85 34.45-14.63 42.49-14.63C44.14-14.5 44.68-13.56 44.81-13.38 45.17-12.84 45.61-10.66 45.97-10.92L45.97-20.22C45.61-20.48 45.17-18.25 44.81-17.76 44.68-17.54 44.14-16.6 42.49-16.46L34.45-16.46 34.45-27.41 45.21-27.41C46.82-27.27 47.4-26.34 47.54-26.16 47.89-25.62 48.29-23.43 48.65-23.7L48.21-29.24 28.82-29.24C28.64-28.75 30.42-28.57 30.42-26.56L30.42-2.7C30.42-0.69 28.64-0.51 28.82-0.02ZM68.09-6.08C67.91-0.54 55.31 0.63 54.37-8.27L53.61-8.49 53.61 0C54.46 0.13 54.55-2.68 56.92-1.3 58.62-0.54 60.13 0 62.73 0 66.21 0 72.2-1.34 71.84-7.86 71.39-16.57 58.3-16.08 57.1-21.89 55.71-28.5 68.09-29.89 69.92-22.96L70.68-22.83 69.56-29.22C68.98-29.44 69.69-27.12 67.55-28.06 65.81-28.82 64.42-29.22 61.7-29.22 58.26-29.22 53.03-27.92 52.63-21.89 52-12.69 68.31-12.78 68.09-6.08ZM88.24-2.68L88.24-27.39 93.42-27.39C95.07-27.25 95.65-26.31 95.79-26.14 96.14-25.6 96.55-23.41 96.9-23.68L96.41-29.22 76.04-29.22 75.55-23.68C75.9-23.41 76.31-25.6 76.66-26.14 76.8-26.31 77.38-27.25 78.99-27.39L84.21-27.39 84.21-2.68C84.21-0.67 82.43-0.49 82.61 0L89.8 0C90.02-0.49 88.24-0.67 88.24-2.68ZM112.18-0.02C120.49-0.02 125.67-6.59 125.67-14.63 125.67-22.67 120.67-29.24 112.18-29.24 103.65-29.24 98.69-22.67 98.69-14.63 98.69-6.59 103.83-0.02 112.18-0.02ZM112.18-27.41C118.17-27.41 121.65-21.69 121.65-14.63 121.65-7.57 118.03-1.85 112.18-1.85 106.28-1.85 102.67-7.57 102.67-14.63 102.67-21.69 106.2-27.41 112.18-27.41ZM129.2 0L136.4 0C136.57-0.49 134.79-0.67 134.79-2.68L134.79-11.88C135.9-11.93 137.07-12.02 138.27-12.24L145.51-2.06C146.36-0.71 147.57 0 149.58 0 150.78 0 151.99 0 153.15 0 153.28-0.22 153.02-0.4 152.66-0.54 151.85-0.8 150.74-1.61 149.89-2.68L142.43-13.18C146.54-14.48 151.14-17.02 151.01-21.89 150.87-25.96 146.81-29.22 141.27-29.22L129.2-29.22C129.02-28.73 130.81-28.55 130.81-26.54L130.81-2.68C130.81-0.67 129.02-0.49 129.2 0ZM134.79-27.39C138.67-27.39 146.31-27.79 146.45-21.94 146.54-18.9 144.66-14.61 134.79-13.72ZM156.81-0.02L176.2-0.02 176.65-5.56C176.29-5.83 175.89-3.64 175.53-3.1 175.4-2.93 174.82-1.99 173.21-1.85L162.44-1.85 162.44-14.63 170.48-14.63C172.14-14.5 172.67-13.56 172.81-13.38 173.16-12.84 173.61-10.66 173.97-10.92L173.97-20.22C173.61-20.48 173.16-18.25 172.81-17.76 172.67-17.54 172.14-16.6 170.48-16.46L162.44-16.46 162.44-27.41 173.21-27.41C174.82-27.27 175.4-26.34 175.53-26.16 175.89-25.62 176.29-23.43 176.65-23.7L176.2-29.24 156.81-29.24C156.63-28.75 158.42-28.57 158.42-26.56L158.42-2.7C158.42-0.69 156.63-0.51 156.81-0.02Z"
                            transform="translate(-0.1672806739807129, 29.239999771118164)"/>
                    </g> <!----> <!----> <!----> <!----> <!----> <!----> <!---->
                </g>
            </g>
            <g class="tp-slogan iconsvg-slogansvg" fill="#35495e"
               transform="translate(11.70135498046875,35.2443904876709)"><!----> <!---->
                <g transform="scale(1, 1)">
                    <g transform="scale(1)">
                        <path
                            d="M0.62-3.94C0.62-3.30 0.71-2.72 0.89-2.21C1.06-1.71 1.31-1.28 1.62-0.93C1.93-0.58 2.30-0.32 2.74-0.13C3.17 0.05 3.64 0.14 4.16 0.14C4.69 0.14 5.17 0.06 5.59-0.11C6.01-0.29 6.34-0.50 6.60-0.77L6.60-4.08L4.02-4.08L4.02-3.25L5.69-3.25L5.69-1.20C5.53-1.06 5.32-0.94 5.07-0.86C4.82-0.77 4.55-0.73 4.27-0.73C3.85-0.73 3.47-0.81 3.15-0.96C2.83-1.11 2.55-1.33 2.33-1.61C2.11-1.89 1.95-2.23 1.83-2.62C1.71-3.02 1.66-3.46 1.66-3.96C1.66-4.45 1.72-4.89 1.84-5.28C1.97-5.67 2.14-6.01 2.36-6.28C2.59-6.56 2.86-6.77 3.18-6.92C3.50-7.07 3.86-7.14 4.26-7.14C4.66-7.14 4.99-7.07 5.25-6.93C5.51-6.79 5.74-6.62 5.94-6.41L6.50-7.04C6.27-7.28 5.97-7.51 5.61-7.71C5.25-7.91 4.79-8.02 4.25-8.02C3.72-8.02 3.24-7.92 2.80-7.73C2.36-7.55 1.97-7.28 1.65-6.92C1.33-6.57 1.07-6.14 0.89-5.64C0.71-5.14 0.62-4.57 0.62-3.94ZM11.78-3.20L9.42-3.20L9.79-4.40C9.94-4.84 10.07-5.28 10.20-5.72C10.33-6.15 10.45-6.60 10.57-7.06L10.62-7.06C10.75-6.60 10.88-6.15 11.00-5.72C11.13-5.28 11.27-4.84 11.41-4.40ZM12.04-2.40L12.78 0L13.85 0L11.18-7.87L10.06-7.87L7.39 0L8.41 0L9.17-2.40ZM14.96-7.87L14.96 0L15.89 0L15.89-4.33C15.89-4.68 15.87-5.07 15.84-5.50C15.81-5.92 15.78-6.31 15.76-6.66L15.80-6.66L16.43-4.91L17.95-0.79L18.52-0.79L20.03-4.91L20.66-6.66L20.71-6.66C20.68-6.31 20.65-5.92 20.62-5.50C20.59-5.07 20.58-4.68 20.58-4.33L20.58 0L21.53 0L21.53-7.87L20.35-7.87L18.84-3.65L18.29-2.04L18.24-2.04L17.66-3.65L16.14-7.87ZM23.69-7.87L23.69 0L28.34 0L28.34-0.85L24.68-0.85L24.68-3.71L27.67-3.71L27.67-4.56L24.68-4.56L24.68-7.03L28.22-7.03L28.22-7.87ZM32.46-1.72L31.86-1.02C32.20-0.66 32.61-0.38 33.08-0.17C33.56 0.04 34.07 0.14 34.62 0.14C35.04 0.14 35.41 0.09 35.74-0.03C36.06-0.15 36.34-0.31 36.58-0.51C36.81-0.71 36.99-0.95 37.11-1.22C37.23-1.50 37.30-1.79 37.30-2.10C37.30-2.39 37.25-2.64 37.17-2.86C37.09-3.08 36.97-3.27 36.83-3.44C36.68-3.60 36.51-3.75 36.31-3.87C36.11-3.99 35.90-4.10 35.68-4.20L34.56-4.68C34.40-4.74 34.24-4.81 34.09-4.89C33.94-4.97 33.80-5.05 33.67-5.15C33.54-5.25 33.44-5.37 33.37-5.50C33.29-5.63 33.25-5.80 33.25-5.99C33.25-6.35 33.39-6.63 33.65-6.83C33.92-7.04 34.28-7.14 34.72-7.14C35.08-7.14 35.41-7.07 35.71-6.94C36.00-6.81 36.26-6.63 36.50-6.40L37.04-7.04C36.76-7.33 36.42-7.57 36.02-7.75C35.62-7.93 35.19-8.02 34.72-8.02C34.36-8.02 34.03-7.96 33.73-7.86C33.43-7.76 33.17-7.61 32.95-7.42C32.73-7.23 32.55-7.01 32.43-6.76C32.31-6.50 32.24-6.22 32.24-5.93C32.24-5.64 32.29-5.39 32.39-5.17C32.48-4.95 32.61-4.76 32.76-4.60C32.91-4.44 33.08-4.30 33.28-4.19C33.47-4.08 33.66-3.98 33.84-3.90L34.97-3.41C35.15-3.32 35.32-3.24 35.48-3.16C35.64-3.08 35.78-2.99 35.90-2.89C36.01-2.79 36.11-2.67 36.17-2.53C36.24-2.39 36.28-2.22 36.28-2.02C36.28-1.63 36.13-1.32 35.84-1.09C35.56-0.85 35.15-0.73 34.63-0.73C34.22-0.73 33.83-0.82 33.45-1.00C33.07-1.18 32.74-1.42 32.46-1.72ZM40.24-7.03L40.24 0L41.24 0L41.24-7.03L43.62-7.03L43.62-7.87L37.86-7.87L37.86-7.03ZM47.65 0.14C48.15 0.14 48.60 0.05 49.01-0.14C49.43-0.34 49.78-0.61 50.08-0.97C50.38-1.32 50.61-1.75 50.78-2.26C50.94-2.77 51.02-3.34 51.02-3.97C51.02-4.60 50.94-5.16 50.78-5.66C50.61-6.16 50.38-6.58 50.08-6.93C49.78-7.28 49.43-7.55 49.01-7.73C48.60-7.92 48.15-8.02 47.65-8.02C47.16-8.02 46.70-7.92 46.29-7.74C45.88-7.56 45.52-7.29 45.23-6.94C44.93-6.59 44.70-6.17 44.54-5.67C44.37-5.17 44.29-4.60 44.29-3.97C44.29-3.34 44.37-2.77 44.54-2.26C44.70-1.75 44.93-1.32 45.23-0.97C45.52-0.61 45.88-0.34 46.29-0.14C46.70 0.05 47.16 0.14 47.65 0.14ZM47.65-0.73C47.30-0.73 46.98-0.81 46.70-0.96C46.41-1.11 46.17-1.33 45.97-1.61C45.76-1.90 45.60-2.24 45.49-2.63C45.38-3.03 45.32-3.48 45.32-3.97C45.32-4.46 45.38-4.90 45.49-5.29C45.60-5.68 45.76-6.02 45.97-6.29C46.17-6.56 46.41-6.77 46.70-6.92C46.98-7.07 47.30-7.14 47.65-7.14C48.00-7.14 48.32-7.07 48.61-6.92C48.89-6.77 49.13-6.56 49.34-6.29C49.54-6.02 49.70-5.68 49.81-5.29C49.92-4.90 49.98-4.46 49.98-3.97C49.98-3.48 49.92-3.03 49.81-2.63C49.70-2.24 49.54-1.90 49.34-1.61C49.13-1.33 48.89-1.11 48.61-0.96C48.32-0.81 48.00-0.73 47.65-0.73ZM53.71-4.14L53.71-7.07L55.03-7.07C55.65-7.07 56.12-6.96 56.45-6.76C56.78-6.55 56.94-6.18 56.94-5.66C56.94-5.15 56.78-4.77 56.45-4.52C56.12-4.27 55.65-4.14 55.03-4.14ZM57.04 0L58.16 0L56.17-3.43C56.71-3.57 57.14-3.82 57.46-4.19C57.78-4.56 57.94-5.05 57.94-5.66C57.94-6.07 57.87-6.42 57.73-6.70C57.60-6.98 57.41-7.20 57.16-7.38C56.92-7.56 56.63-7.68 56.29-7.76C55.95-7.83 55.58-7.87 55.18-7.87L52.72-7.87L52.72 0L53.71 0L53.71-3.32L55.14-3.32ZM59.69-7.87L59.69 0L64.34 0L64.34-0.85L60.68-0.85L60.68-3.71L63.67-3.71L63.67-4.56L60.68-4.56L60.68-7.03L64.22-7.03L64.22-7.87ZM68.44-7.87L68.44 0L69.43 0L69.43-3.53L72.43-3.53L72.43-4.37L69.43-4.37L69.43-7.03L72.97-7.03L72.97-7.87ZM77.15 0.14C77.64 0.14 78.10 0.05 78.51-0.14C78.92-0.34 79.28-0.61 79.58-0.97C79.88-1.32 80.11-1.75 80.27-2.26C80.44-2.77 80.52-3.34 80.52-3.97C80.52-4.60 80.44-5.16 80.27-5.66C80.11-6.16 79.88-6.58 79.58-6.93C79.28-7.28 78.92-7.55 78.51-7.73C78.10-7.92 77.64-8.02 77.15-8.02C76.65-8.02 76.20-7.92 75.79-7.74C75.37-7.56 75.02-7.29 74.72-6.94C74.43-6.59 74.20-6.17 74.03-5.67C73.87-5.17 73.79-4.60 73.79-3.97C73.79-3.34 73.87-2.77 74.03-2.26C74.20-1.75 74.43-1.32 74.72-0.97C75.02-0.61 75.37-0.34 75.79-0.14C76.20 0.05 76.65 0.14 77.15 0.14ZM77.15-0.73C76.80-0.73 76.48-0.81 76.19-0.96C75.91-1.11 75.67-1.33 75.46-1.61C75.26-1.90 75.10-2.24 74.99-2.63C74.88-3.03 74.82-3.48 74.82-3.97C74.82-4.46 74.88-4.90 74.99-5.29C75.10-5.68 75.26-6.02 75.46-6.29C75.67-6.56 75.91-6.77 76.19-6.92C76.48-7.07 76.80-7.14 77.15-7.14C77.50-7.14 77.82-7.07 78.10-6.92C78.39-6.77 78.63-6.56 78.83-6.29C79.04-6.02 79.20-5.68 79.31-5.29C79.42-4.90 79.48-4.46 79.48-3.97C79.48-3.48 79.42-3.03 79.31-2.63C79.20-2.24 79.04-1.90 78.83-1.61C78.63-1.33 78.39-1.11 78.10-0.96C77.82-0.81 77.50-0.73 77.15-0.73ZM83.21-4.14L83.21-7.07L84.53-7.07C85.14-7.07 85.62-6.96 85.94-6.76C86.27-6.55 86.44-6.18 86.44-5.66C86.44-5.15 86.27-4.77 85.94-4.52C85.62-4.27 85.14-4.14 84.53-4.14ZM86.53 0L87.66 0L85.67-3.43C86.20-3.57 86.63-3.82 86.95-4.19C87.27-4.56 87.43-5.05 87.43-5.66C87.43-6.07 87.36-6.42 87.23-6.70C87.09-6.98 86.90-7.20 86.66-7.38C86.41-7.56 86.12-7.68 85.78-7.76C85.44-7.83 85.07-7.87 84.67-7.87L82.21-7.87L82.21 0L83.21 0L83.21-3.32L84.64-3.32ZM93.24-7.03L93.24 0L94.25 0L94.25-7.03L96.62-7.03L96.62-7.87L90.86-7.87L90.86-7.03ZM98.04-7.87L98.04 0L99.04 0L99.04-3.71L102.70-3.71L102.70 0L103.70 0L103.70-7.87L102.70-7.87L102.70-4.57L99.04-4.57L99.04-7.87ZM105.86-7.87L105.86 0L110.52 0L110.52-0.85L106.86-0.85L106.86-3.71L109.85-3.71L109.85-4.56L106.86-4.56L106.86-7.03L110.40-7.03L110.40-7.87ZM114.61-7.87L114.61 0L115.54 0L115.54-4.33C115.54-4.68 115.52-5.07 115.49-5.50C115.46-5.92 115.43-6.31 115.40-6.66L115.45-6.66L116.08-4.91L117.60-0.79L118.16-0.79L119.68-4.91L120.31-6.66L120.36-6.66C120.33-6.31 120.30-5.92 120.27-5.50C120.24-5.07 120.23-4.68 120.23-4.33L120.23 0L121.18 0L121.18-7.87L120.00-7.87L118.49-3.65L117.94-2.04L117.89-2.04L117.31-3.65L115.79-7.87ZM126.68-3.20L124.32-3.20L124.69-4.40C124.84-4.84 124.97-5.28 125.10-5.72C125.23-6.15 125.35-6.60 125.47-7.06L125.52-7.06C125.65-6.60 125.78-6.15 125.90-5.72C126.03-5.28 126.17-4.84 126.31-4.40ZM126.94-2.40L127.68 0L128.75 0L126.08-7.87L124.96-7.87L122.29 0L123.31 0L124.07-2.40ZM129.89-1.72L129.29-1.02C129.63-0.66 130.04-0.38 130.51-0.17C130.98 0.04 131.50 0.14 132.05 0.14C132.46 0.14 132.84 0.09 133.16-0.03C133.49-0.15 133.77-0.31 134.00-0.51C134.24-0.71 134.41-0.95 134.54-1.22C134.66-1.50 134.72-1.79 134.72-2.10C134.72-2.39 134.68-2.64 134.60-2.86C134.51-3.08 134.40-3.27 134.26-3.44C134.11-3.60 133.94-3.75 133.74-3.87C133.54-3.99 133.33-4.10 133.10-4.20L131.99-4.68C131.83-4.74 131.67-4.81 131.52-4.89C131.37-4.97 131.23-5.05 131.10-5.15C130.97-5.25 130.87-5.37 130.79-5.50C130.72-5.63 130.68-5.80 130.68-5.99C130.68-6.35 130.81-6.63 131.08-6.83C131.35-7.04 131.70-7.14 132.14-7.14C132.51-7.14 132.84-7.07 133.13-6.94C133.43-6.81 133.69-6.63 133.93-6.40L134.47-7.04C134.19-7.33 133.85-7.57 133.45-7.75C133.05-7.93 132.62-8.02 132.14-8.02C131.78-8.02 131.45-7.96 131.15-7.86C130.85-7.76 130.59-7.61 130.37-7.42C130.15-7.23 129.98-7.01 129.86-6.76C129.73-6.50 129.67-6.22 129.67-5.93C129.67-5.64 129.72-5.39 129.82-5.17C129.91-4.95 130.04-4.76 130.19-4.60C130.34-4.44 130.51-4.30 130.70-4.19C130.90-4.08 131.08-3.98 131.27-3.90L132.40-3.41C132.58-3.32 132.75-3.24 132.91-3.16C133.07-3.08 133.21-2.99 133.33-2.89C133.44-2.79 133.53-2.67 133.60-2.53C133.67-2.39 133.70-2.22 133.70-2.02C133.70-1.63 133.56-1.32 133.27-1.09C132.98-0.85 132.58-0.73 132.06-0.73C131.65-0.73 131.26-0.82 130.88-1.00C130.50-1.18 130.17-1.42 129.89-1.72ZM136.13-1.72L135.53-1.02C135.87-0.66 136.28-0.38 136.75-0.17C137.22 0.04 137.74 0.14 138.29 0.14C138.70 0.14 139.08 0.09 139.40-0.03C139.73-0.15 140.01-0.31 140.24-0.51C140.48-0.71 140.65-0.95 140.78-1.22C140.90-1.50 140.96-1.79 140.96-2.10C140.96-2.39 140.92-2.64 140.84-2.86C140.75-3.08 140.64-3.27 140.50-3.44C140.35-3.60 140.18-3.75 139.98-3.87C139.78-3.99 139.57-4.10 139.34-4.20L138.23-4.68C138.07-4.74 137.91-4.81 137.76-4.89C137.61-4.97 137.47-5.05 137.34-5.15C137.21-5.25 137.11-5.37 137.03-5.50C136.96-5.63 136.92-5.80 136.92-5.99C136.92-6.35 137.05-6.63 137.32-6.83C137.59-7.04 137.94-7.14 138.38-7.14C138.75-7.14 139.08-7.07 139.37-6.94C139.67-6.81 139.93-6.63 140.17-6.40L140.71-7.04C140.43-7.33 140.09-7.57 139.69-7.75C139.29-7.93 138.86-8.02 138.38-8.02C138.02-8.02 137.69-7.96 137.39-7.86C137.09-7.76 136.83-7.61 136.61-7.42C136.39-7.23 136.22-7.01 136.10-6.76C135.97-6.50 135.91-6.22 135.91-5.93C135.91-5.64 135.96-5.39 136.06-5.17C136.15-4.95 136.28-4.76 136.43-4.60C136.58-4.44 136.75-4.30 136.94-4.19C137.14-4.08 137.32-3.98 137.51-3.90L138.64-3.41C138.82-3.32 138.99-3.24 139.15-3.16C139.31-3.08 139.45-2.99 139.57-2.89C139.68-2.79 139.77-2.67 139.84-2.53C139.91-2.39 139.94-2.22 139.94-2.02C139.94-1.63 139.80-1.32 139.51-1.09C139.22-0.85 138.82-0.73 138.30-0.73C137.89-0.73 137.50-0.82 137.12-1.00C136.74-1.18 136.41-1.42 136.13-1.72ZM142.51-7.87L142.51 0L147.17 0L147.17-0.85L143.51-0.85L143.51-3.71L146.50-3.71L146.50-4.56L143.51-4.56L143.51-7.03L147.05-7.03L147.05-7.87ZM148.86-1.72L148.26-1.02C148.60-0.66 149.01-0.38 149.48-0.17C149.96 0.04 150.47 0.14 151.02 0.14C151.44 0.14 151.81 0.09 152.14-0.03C152.46-0.15 152.74-0.31 152.98-0.51C153.21-0.71 153.39-0.95 153.51-1.22C153.63-1.50 153.70-1.79 153.70-2.10C153.70-2.39 153.65-2.64 153.57-2.86C153.49-3.08 153.37-3.27 153.23-3.44C153.08-3.60 152.91-3.75 152.71-3.87C152.51-3.99 152.30-4.10 152.08-4.20L150.96-4.68C150.80-4.74 150.64-4.81 150.49-4.89C150.34-4.97 150.20-5.05 150.07-5.15C149.94-5.25 149.84-5.37 149.77-5.50C149.69-5.63 149.65-5.80 149.65-5.99C149.65-6.35 149.79-6.63 150.05-6.83C150.32-7.04 150.68-7.14 151.12-7.14C151.48-7.14 151.81-7.07 152.11-6.94C152.40-6.81 152.66-6.63 152.90-6.40L153.44-7.04C153.16-7.33 152.82-7.57 152.42-7.75C152.02-7.93 151.59-8.02 151.12-8.02C150.76-8.02 150.43-7.96 150.13-7.86C149.83-7.76 149.57-7.61 149.35-7.42C149.13-7.23 148.95-7.01 148.83-6.76C148.71-6.50 148.64-6.22 148.64-5.93C148.64-5.64 148.69-5.39 148.79-5.17C148.88-4.95 149.01-4.76 149.16-4.60C149.31-4.44 149.48-4.30 149.68-4.19C149.87-4.08 150.06-3.98 150.24-3.90L151.37-3.41C151.55-3.32 151.72-3.24 151.88-3.16C152.04-3.08 152.18-2.99 152.30-2.89C152.41-2.79 152.51-2.67 152.57-2.53C152.64-2.39 152.68-2.22 152.68-2.02C152.68-1.63 152.53-1.32 152.24-1.09C151.96-0.85 151.55-0.73 151.03-0.73C150.62-0.73 150.23-0.82 149.85-1.00C149.47-1.18 149.14-1.42 148.86-1.72Z"
                            transform="translate(-0.624, 8.016)"/>
                    </g>
                </g>
            </g>
        </g>
    </g>
</svg>
